<?xml version="1.0" standalone="no"?>
<!DOCTYPE svg PUBLIC "-//W3C//DTD SVG 20010904//EN"
 "http://www.w3.org/TR/2001/REC-SVG-20010904/DTD/svg10.dtd">
<svg version="1.0" xmlns="http://www.w3.org/2000/svg"
 width="184.000000pt" height="178.000000pt" viewBox="0 0 184.000000 178.000000"
 preserveAspectRatio="xMidYMid meet">
<metadata>
Created by potrace 1.16, written by Peter Selinger 2001-2019
</metadata>
<g transform="translate(0.000000,178.000000) scale(0.100000,-0.100000)"
fill="#000000" stroke="none">
<path d="M765 1706 c-161 -31 -299 -107 -425 -235 -78 -78 -105 -113 -143
-187 -97 -190 -119 -408 -60 -614 68 -240 278 -453 530 -539 276 -93 584 -23
802 184 172 163 255 355 254 590 0 136 -21 234 -72 342 -107 224 -298 382
-542 449 -77 21 -259 27 -344 10z m299 -50 c152 -30 273 -94 387 -206 90 -90
155 -195 196 -318 25 -78 28 -101 28 -222 0 -157 -14 -221 -76 -346 -74 -152
-192 -270 -344 -344 -103 -51 -177 -70 -300 -77 -228 -12 -419 61 -580 222
-143 144 -214 305 -222 505 -4 95 -1 131 16 205 97 408 484 659 895 581z"/>
<path d="M850 1500 c-36 -43 -70 -79 -76 -79 -6 -1 -17 6 -24 14 -19 23 -31
19 -96 -30 -32 -24 -63 -45 -69 -45 -5 0 -44 21 -85 45 l-75 46 -57 -61 c-50
-54 -124 -177 -143 -237 l-6 -23 696 0 696 0 -6 23 c-19 60 -93 183 -143 237
l-57 61 -65 -40 c-36 -22 -71 -40 -78 -41 -7 0 -35 18 -63 40 -51 41 -73 48
-84 30 -14 -23 -46 -6 -114 65 -40 41 -76 75 -80 74 -3 0 -35 -36 -71 -79z
m170 -42 c0 -4 -8 -8 -18 -8 -10 0 -25 -9 -35 -20 -13 -15 -22 -18 -35 -11
-11 6 -24 6 -36 -1 -15 -8 -22 -7 -31 6 -7 9 -17 16 -24 16 -18 0 -13 8 36 66
l47 54 48 -47 c26 -26 48 -51 48 -55z"/>
<path d="M225 658 c20 -64 94 -185 151 -247 85 -92 185 -157 309 -200 95 -33
107 -35 230 -35 123 0 135 2 230 35 124 43 224 108 309 200 57 62 131 183 151
247 l6 22 -696 0 -696 0 6 -22z"/>
</g>
</svg>
